<?xml version="1.0" encoding="utf-8"?><!-- Uploaded to: SVG Repo, www.svgrepo.com, Generator: SVG Repo Mixer Tools -->
<svg fill="#000000" width="800px" height="800px" viewBox="0 0 24 24" xmlns="http://www.w3.org/2000/svg" id="home-alt-2" class="icon glyph"><path d="M19.71,9.29l-7-7a1,1,0,0,0-1.42,0l-7,7A1,1,0,0,0,4,10V21a1,1,0,0,0,1,1H8a1,1,0,0,0,.54-.18,1,1,0,0,0,.17-.11,1,1,0,0,0,.11-.17A1,1,0,0,0,9,21V15a1,1,0,0,1,1-1h4a1,1,0,0,1,1,1v6a1,1,0,0,0,1,1h3a1,1,0,0,0,1-1V10A1,1,0,0,0,19.71,9.29Z"></path></svg>